<svg width="172" height="149" viewBox="0 0 172 149" fill="#3B3D41" xmlns="http://www.w3.org/2000/svg">
<path d="M84.5055 3.29965C86.5555 2.54965 90.0555 1.64965 92.2555 1.24965C94.4555 0.899647 98.7055 0.599647 101.755 0.549647C105.255 0.499647 109.155 0.849647 112.505 1.44965C115.405 1.99965 119.555 2.99965 121.755 3.74965C123.955 4.44965 127.555 5.94965 129.755 7.09965C131.955 8.19965 135.305 10.1496 137.205 11.3996C139.155 12.6996 142.655 15.6496 145.005 17.9996C147.355 20.3496 150.305 23.8496 151.605 25.7496C152.855 27.6496 154.605 30.5996 155.455 32.2496C156.255 33.8996 157.405 36.5996 158.005 38.2496C158.555 39.8996 159.505 43.2996 160.055 45.7496C160.656 48.3996 161.156 53.0496 161.355 56.9996C161.505 60.6996 161.355 65.9996 160.555 73.7496L163.955 82.7496C165.805 87.6996 167.705 92.5497 168.155 93.4996C168.555 94.4496 169.405 96.3496 170.005 97.7496C170.555 99.0996 171.156 101.05 171.355 102C171.505 103 171.355 104.25 171.005 105C170.355 106.2 170.255 106.25 166.555 105.9C164.455 105.7 161.205 105.2 159.255 104.75C157.305 104.35 154.055 103.65 152.005 103.2C149.955 102.75 145.455 101.7 135.755 99.4496L131.505 101.65C129.155 102.9 125.705 104.5 123.755 105.25C121.805 106 118.805 107.05 117.005 107.55C115.205 108 111.405 108.8 108.505 109.2C105.605 109.65 102.505 110 101.655 110C100.155 110 99.9555 110.15 99.4555 112.1C99.2055 113.3 98.6555 115.35 98.2555 116.75C97.8555 118.1 96.6055 121.15 95.4555 123.5C94.3555 125.85 92.4555 129.1 91.2555 130.75C90.1055 132.4 87.7055 135.1 85.9555 136.75C84.2055 138.4 81.4055 140.7 79.7555 141.8C78.1055 142.9 75.3055 144.55 73.5055 145.4C71.7055 146.25 68.9055 147.35 67.2555 147.85C64.9055 148.55 62.6055 148.75 56.5055 148.75C49.8055 148.7 48.2555 148.55 45.0055 147.55C42.9555 146.9 39.8055 145.7 38.0055 144.9C36.2055 144.1 33.5055 142.65 29.2555 140L24.2555 141.55C21.5055 142.4 18.2555 143.35 17.0055 143.75C15.7555 144.1 12.5055 145.1 9.75549 146C7.00549 146.85 4.10549 147.8 3.25549 148C2.40549 148.25 1.60549 148.35 1.40549 148.25C1.15549 148.1 1.15549 147.6 1.30549 147.15C1.45549 146.65 2.00549 144.7 2.50549 142.75C3.05549 140.8 4.60549 134.95 8.55549 120.25L7.40549 115.5C6.40549 111.4 6.25549 109.45 6.25549 101.25C6.25549 92.8496 6.40549 91.2997 7.40549 87.7496C8.05549 85.5497 9.50549 81.6996 10.7055 79.2496C11.8555 76.7997 13.8055 73.3997 15.1055 71.7496C16.3555 70.0996 18.4555 67.7496 19.8055 66.4996C21.1555 65.2496 23.2555 63.4996 24.5055 62.6496C25.7555 61.8496 28.0055 60.4996 29.5055 59.7496C31.0055 58.9996 33.9555 57.7996 36.0055 57.1496C38.0555 56.4996 39.9555 55.9996 40.2555 55.9996C40.5555 55.9996 41.6055 55.7496 42.6555 55.4996C44.3555 55.0496 44.5055 54.8496 44.5055 53.0996C44.5055 52.0996 44.8555 49.5496 45.2555 47.4996C45.6055 45.4496 46.4055 42.3996 47.0055 40.7496C47.5555 39.0996 48.9055 35.9496 49.9555 33.7496C51.0555 31.5496 53.4555 27.6996 55.3555 25.2496C57.2555 22.7996 60.2055 19.3496 61.9055 17.5996C63.6055 15.8996 66.8555 13.0996 69.1055 11.4496C71.4055 9.74965 74.9555 7.54965 77.0055 6.49965C79.0555 5.44965 82.4555 3.99965 84.5055 3.29965Z" fill="#3B3D41" stroke="#3B3D41" stroke-width="0.5"/>
<path d="M39.75 60.5008C41.95 59.9008 46 59.2508 48.75 59.0008C51.5 58.8008 53.95 58.6008 54.2 58.5508C54.45 58.5508 57.05 58.7008 59.95 59.0008C62.85 59.2508 66.7 59.9008 68.5 60.4008C70.3 60.9008 73.2 62.0508 75 63.0008C76.8 63.9008 79.5 65.5508 81 66.7508C82.5 67.9008 85.05 70.5008 86.6 72.5508C88.15 74.6008 90.35 78.1508 91.4 80.5008C92.5 82.8508 93.85 86.6508 94.45 89.0008C95.1 91.5508 95.65 95.6508 95.85 99.2508C96 102.901 95.9 106.751 95.55 109.001C95.2 111.051 94.55 114.101 94.05 115.751C93.55 117.401 92.45 120.101 91.65 121.751C90.85 123.401 89.45 125.851 88.5 127.251C87.6 128.601 85.35 131.251 83.55 133.051C81.75 134.851 78.8 137.301 77 138.501C75.2 139.701 72.5 141.251 71 141.901C69.5 142.551 66.55 143.501 64.5 144.051C62.45 144.551 59 145.001 56.85 145.001C54.75 145.001 51.35 144.651 49.35 144.201C47.4 143.751 44.6 143.001 43.25 142.501C41.85 142.001 39.15 140.801 37.25 139.751C35.35 138.751 33 137.351 32.1 136.701C31.25 136.051 30.2 135.501 29.9 135.501C29.55 135.501 25.55 136.651 21 138.051C16.45 139.451 11.8 140.901 10.6 141.301C9.45 141.701 8.25 142.001 8 142.001C7.75 142.001 7.5 141.651 7.5 141.251C7.5 140.851 7.95 139.001 8.45 137.151C8.95 135.251 9.8 132.301 10.25 130.501C10.75 128.701 11.6 125.701 13.1 120.251L12.1 116.251C11.5 114.051 10.8 110.501 10.5 108.401C10.25 106.251 10 103.151 10 101.501C10 99.8508 10.35 96.2508 10.75 93.5008C11.15 90.7508 12.1 86.8508 12.8 84.9008C13.55 82.9008 15.05 79.7008 16.2 77.7508C17.3 75.8508 19.5 72.9508 21 71.3008C22.5 69.7008 25.1 67.4508 26.75 66.3508C28.4 65.2008 31.1 63.7008 32.75 62.9508C34.4 62.2008 37.55 61.1008 39.75 60.5008Z" fill="white" stroke="#3B3D41" stroke-width="0.5"/>
<path d="M52.6535 119.2C52.7035 119.2 53.3035 118.8 54.0035 118.35C54.7035 117.85 55.9035 117.5 56.7535 117.5C57.6035 117.45 58.8535 117.9 59.6035 118.5C60.6535 119.25 61.0035 119.9 61.0035 121.25C61.0035 122.6 60.6535 123.25 59.6535 124C58.8535 124.6 57.5035 125.05 56.6535 125C55.5035 125 54.5535 124.55 53.5035 123.5C52.3035 122.3 52.0535 121.7 52.3035 120.65C52.4535 119.85 52.6035 119.25 52.6535 119.2Z" fill="#3B3D41"/>
<path d="M48.0535 78.2996C49.0035 77.4996 50.6535 76.3996 51.7535 75.8996C53.2035 75.2496 54.6035 74.9996 56.7535 75.1496C58.5035 75.1996 60.7035 75.7496 62.0035 76.3496C63.2535 76.9496 65.1535 78.3496 66.2535 79.3996C67.6035 80.7496 68.5535 82.2996 69.2035 84.2996C70.1035 87.1496 70.1035 87.3496 69.2535 90.4996C68.7535 92.2996 67.8035 94.6496 67.1035 95.7496C66.4035 96.8496 63.9535 99.6996 61.6535 102.15C58.0535 105.9 57.5035 106.75 57.5035 108.25C57.5035 109.2 57.3035 110.45 57.0035 111C56.7035 111.6 56.0035 112 55.2535 112C54.4535 112 53.8035 111.6 53.4535 110.9C53.0035 110.05 53.0035 109.05 53.4035 107C53.9035 104.55 54.4535 103.75 58.6035 99.1996C61.1535 96.3996 63.8035 93.0496 64.4535 91.6996C65.4035 89.7496 65.6035 88.7496 65.4035 86.7496C65.1535 84.5496 64.8535 83.9996 62.7035 82.0996C61.3035 80.8996 59.4035 79.6996 58.2535 79.3996C56.8535 79.0496 55.7035 79.0496 54.5035 79.4496C53.5535 79.7496 51.8535 80.6996 50.8035 81.5996C49.7035 82.4996 47.9535 84.5496 46.9035 86.1496C45.8535 87.7496 44.6035 88.9996 44.1535 88.9996C43.6535 89.0496 42.9535 88.6996 42.6535 88.2496C42.3035 87.8496 42.1035 86.9496 42.2535 86.2496C42.4035 85.5496 43.3535 83.7996 44.4035 82.3996C45.4535 80.9496 47.1035 79.0996 48.0535 78.2996Z" fill="#3B3D41"/>
<path d="M52.6535 119.2C52.7035 119.2 53.3035 118.8 54.0035 118.35C54.7035 117.85 55.9035 117.5 56.7535 117.5C57.6035 117.45 58.8535 117.9 59.6035 118.5C60.6535 119.25 61.0035 119.9 61.0035 121.25C61.0035 122.6 60.6535 123.25 59.6535 124C58.8535 124.6 57.5035 125.05 56.6535 125C55.5035 125 54.5535 124.55 53.5035 123.5C52.3035 122.3 52.0535 121.7 52.3035 120.65C52.4535 119.85 52.6035 119.25 52.6535 119.2Z" stroke="#3B3D41" stroke-width="0.5"/>
<path d="M48.0535 78.2996C49.0035 77.4996 50.6535 76.3996 51.7535 75.8996C53.2035 75.2496 54.6035 74.9996 56.7535 75.1496C58.5035 75.1996 60.7035 75.7496 62.0035 76.3496C63.2535 76.9496 65.1535 78.3496 66.2535 79.3996C67.6035 80.7496 68.5535 82.2996 69.2035 84.2996C70.1035 87.1496 70.1035 87.3496 69.2535 90.4996C68.7535 92.2996 67.8035 94.6496 67.1035 95.7496C66.4035 96.8496 63.9535 99.6996 61.6535 102.15C58.0535 105.9 57.5035 106.75 57.5035 108.25C57.5035 109.2 57.3035 110.45 57.0035 111C56.7035 111.6 56.0035 112 55.2535 112C54.4535 112 53.8035 111.6 53.4535 110.9C53.0035 110.05 53.0035 109.05 53.4035 107C53.9035 104.55 54.4535 103.75 58.6035 99.1996C61.1535 96.3996 63.8035 93.0496 64.4535 91.6996C65.4035 89.7496 65.6035 88.7496 65.4035 86.7496C65.1535 84.5496 64.8535 83.9996 62.7035 82.0996C61.3035 80.8996 59.4035 79.6996 58.2535 79.3996C56.8535 79.0496 55.7035 79.0496 54.5035 79.4496C53.5535 79.7496 51.8535 80.6996 50.8035 81.5996C49.7035 82.4996 47.9535 84.5496 46.9035 86.1496C45.8535 87.7496 44.6035 88.9996 44.1535 88.9996C43.6535 89.0496 42.9535 88.6996 42.6535 88.2496C42.3035 87.8496 42.1035 86.9496 42.2535 86.2496C42.4035 85.5496 43.3535 83.7996 44.4035 82.3996C45.4535 80.9496 47.1035 79.0996 48.0535 78.2996Z" stroke="#3B3D41" stroke-width="0.5"/>
<path d="M89.5047 6.19957C91.3047 5.74957 94.4547 5.19957 96.5047 4.99957C98.5547 4.79957 102.305 4.69957 104.755 4.84957C107.205 4.99957 110.955 5.39957 113.005 5.79957C115.055 6.19957 118.205 6.99957 120.005 7.59957C121.805 8.14957 125.305 9.64957 127.755 10.8496C130.205 12.0496 133.705 14.0996 135.505 15.3996C137.305 16.6496 139.855 18.7496 141.205 19.9996C142.555 21.2496 145.005 24.0496 146.655 26.2496C148.305 28.4496 150.705 32.4996 152.005 35.2496C153.305 37.9996 154.905 42.2996 155.555 44.7496C156.555 48.6496 156.705 50.4496 156.705 57.9996C156.705 62.8496 156.455 68.0496 156.105 69.6496C155.505 72.4496 155.555 72.5996 157.505 77.5996C158.605 80.4496 160.605 85.6496 161.955 89.2496C163.305 92.7996 164.255 95.8996 164.055 96.0996C163.905 96.2996 162.205 96.1496 160.255 95.7996L159.836 95.7137C157.59 95.2528 152.387 94.1855 147.755 93.2496C142.805 92.1996 137.955 91.2496 137.005 91.0496C135.505 90.7996 134.355 91.1996 129.255 93.7996C125.955 95.4496 121.455 97.3996 119.255 98.0996C117.055 98.7996 113.555 99.7496 111.505 100.15C109.455 100.6 106.205 101 100.755 101.25L100.205 96.9996C99.9547 94.6496 99.4047 91.4996 99.0547 89.9996C98.7047 88.4996 98.0047 85.8996 97.4547 84.2496C96.9547 82.5996 95.8047 79.7996 94.9547 77.9996C94.1047 76.1996 92.5047 73.4496 91.4547 71.8996C90.3547 70.2996 89.7047 68.8996 90.0047 68.7496C90.3047 68.5996 93.9547 68.1496 98.1547 67.7496C102.305 67.3496 106.555 66.8496 107.505 66.6996C108.455 66.4996 109.555 66.0996 109.905 65.7996C110.255 65.4996 110.555 64.7496 110.505 64.0996C110.505 63.4996 110.105 62.8496 109.655 62.6496C109.155 62.4996 106.305 62.5996 103.255 62.9496C100.205 63.2496 94.9547 63.7996 85.2547 64.6996L83.0047 62.8996C81.7547 61.8996 79.5047 60.4496 78.0047 59.6496C76.5047 58.8496 74.2547 57.8496 73.0047 57.3996C71.7547 56.8996 69.1547 56.1496 67.2547 55.6996C65.3047 55.2496 60.5047 54.7496 48.8047 54.2496L48.9047 51.7496C49.0047 50.3996 49.5047 47.4496 50.0547 45.2496C50.6547 43.0496 52.0547 39.1996 53.2547 36.7496C54.4547 34.2996 56.8547 30.3496 58.6547 27.9996C60.4047 25.6496 63.6547 22.0496 65.8047 19.9496C68.0047 17.8996 71.0047 15.2496 72.5047 14.1496C74.0047 13.0496 76.7047 11.3496 78.5047 10.3996C80.3047 9.44957 82.7547 8.29957 84.0047 7.84957C85.2547 7.39957 87.7047 6.69957 89.5047 6.19957Z" fill="white" stroke="#3B3D41" stroke-width="0.5"/>
<path d="M104.752 48.6992C108.852 48.2992 115.052 47.6492 118.502 47.2992C121.952 46.9492 126.202 46.5992 128.002 46.5492C130.052 46.4992 131.502 46.6992 131.902 47.0992C132.252 47.4492 132.502 48.0992 132.502 48.4992C132.552 48.8992 132.152 49.5992 131.652 50.0492C130.952 50.6492 129.252 50.9492 124.502 51.1492C121.052 51.3492 116.452 51.6992 114.252 51.9492C112.052 52.2492 105.752 52.9492 100.252 53.4992C94.7524 54.0492 87.2524 54.6992 83.6524 54.9992C80.0024 55.2492 76.6524 55.3992 76.2524 55.2492C75.8524 55.0992 75.4024 54.4492 75.2524 53.7492C75.1024 53.0492 75.3024 52.1492 75.6024 51.7492C76.0524 51.1992 77.1024 50.9492 79.2524 50.9992C80.9024 50.9992 85.6024 50.6492 89.7524 50.2492C93.8524 49.8492 100.602 49.1492 104.752 48.6992Z" fill="#3B3D41"/>
<path d="M115.002 35.0492C117.902 34.7492 121.252 34.4492 122.502 34.3492C123.752 34.2492 126.202 34.1992 127.952 34.1992C130.652 34.2492 131.202 34.3992 131.552 35.2492C131.802 35.8492 131.702 36.5492 131.352 37.0492C130.852 37.6992 128.002 38.1492 116.752 39.2492C109.052 39.9492 99.5024 40.8992 95.5024 41.2992C91.5024 41.6992 85.6524 42.1992 82.5024 42.4492C79.3524 42.6492 76.3524 42.6992 75.8524 42.5492C75.3524 42.3992 74.8524 41.7492 74.7024 41.1492C74.6024 40.4992 74.7024 39.6992 74.9524 39.3992C75.2524 38.9992 77.6024 38.5992 81.3524 38.3492C84.6024 38.1492 89.3024 37.6992 91.7524 37.4492C94.2024 37.1992 99.3024 36.6492 103.002 36.2492C106.702 35.8492 112.102 35.2992 115.002 35.0492Z" fill="#3B3D41"/>
<path d="M104.752 48.6992C108.852 48.2992 115.052 47.6492 118.502 47.2992C121.952 46.9492 126.202 46.5992 128.002 46.5492C130.052 46.4992 131.502 46.6992 131.902 47.0992C132.252 47.4492 132.502 48.0992 132.502 48.4992C132.552 48.8992 132.152 49.5992 131.652 50.0492C130.952 50.6492 129.252 50.9492 124.502 51.1492C121.052 51.3492 116.452 51.6992 114.252 51.9492C112.052 52.2492 105.752 52.9492 100.252 53.4992C94.7524 54.0492 87.2524 54.6992 83.6524 54.9992C80.0024 55.2492 76.6524 55.3992 76.2524 55.2492C75.8524 55.0992 75.4024 54.4492 75.2524 53.7492C75.1024 53.0492 75.3024 52.1492 75.6024 51.7492C76.0524 51.1992 77.1024 50.9492 79.2524 50.9992C80.9024 50.9992 85.6024 50.6492 89.7524 50.2492C93.8524 49.8492 100.602 49.1492 104.752 48.6992Z" stroke="#3B3D41" stroke-width="0.5"/>
<path d="M115.002 35.0492C117.902 34.7492 121.252 34.4492 122.502 34.3492C123.752 34.2492 126.202 34.1992 127.952 34.1992C130.652 34.2492 131.202 34.3992 131.552 35.2492C131.802 35.8492 131.702 36.5492 131.352 37.0492C130.852 37.6992 128.002 38.1492 116.752 39.2492C109.052 39.9492 99.5024 40.8992 95.5024 41.2992C91.5024 41.6992 85.6524 42.1992 82.5024 42.4492C79.3524 42.6492 76.3524 42.6992 75.8524 42.5492C75.3524 42.3992 74.8524 41.7492 74.7024 41.1492C74.6024 40.4992 74.7024 39.6992 74.9524 39.3992C75.2524 38.9992 77.6024 38.5992 81.3524 38.3492C84.6024 38.1492 89.3024 37.6992 91.7524 37.4492C94.2024 37.1992 99.3024 36.6492 103.002 36.2492C106.702 35.8492 112.102 35.2992 115.002 35.0492Z" stroke="#3B3D41" stroke-width="0.5"/>
</svg>
