<?xml version="1.0" encoding="UTF-8" standalone="no"?>
<!-- Created with Inkscape (http://www.inkscape.org/) -->

<svg
   version="1.1"
   id="svg2"
   width="1000"
   height="666.66669"
   viewBox="0 0 1000 666.66669"
   sodipodi:docname="mountain.ai"
   xmlns:inkscape="http://www.inkscape.org/namespaces/inkscape"
   xmlns:sodipodi="http://sodipodi.sourceforge.net/DTD/sodipodi-0.dtd"
   xmlns="http://www.w3.org/2000/svg"
   xmlns:svg="http://www.w3.org/2000/svg">
  <defs
     id="defs6">
    <clipPath
       clipPathUnits="userSpaceOnUse"
       id="clipPath18">
      <path
         d="M 0,500 H 750 V 0 H 0 Z"
         id="path16" />
    </clipPath>
  </defs>
  <sodipodi:namedview
     id="namedview4"
     pagecolor="#ffff"
     bordercolor="#ffff"
     borderopacity="0.25"
     inkscape:showpageshadow="2"
     inkscape:pageopacity="0.0"
     inkscape:pagecheckerboard="0"
     inkscape:deskcolor="#d1d1d1" />
  <g
     id="g8"
     inkscape:groupmode="layer"
     inkscape:label="mountain"
     transform="matrix(1.3333333,0,0,-1.3333333,0,666.66667)">
    <path
       d="M 0,0 H 750 V 500 H 0 Z"
       style="fill:none;fill-opacity:1;fill-rule:nonzero;stroke:none"
       id="path10" />
    <g
       id="g12">
      <g
         id="g14"
         clip-path="url(#clipPath18)">
        <g
           id="g20"
           transform="translate(591.5703,199.0908)">
          <path
             d="M 0,0 -7.053,4.538 -0.26,2.063 -9.813,11.878 3.403,4.21 12.273,-6.656 Z m -34.074,24.397 -2.993,1.749 -3.458,6.152 -5.523,1.038 1.86,-5.631 -3.664,1.489 -4.961,-2.583 3.868,4.757 -0.765,4.237 10.373,3.977 15.596,-24.328 z m -2.364,56.558 4.126,4.278 -4.126,-8.898 z m -148.995,2.214 -10.483,5.522 -5.085,3.499 -3.963,-0.82 -6.574,5.782 -4.442,1.654 -0.411,2.706 -2.009,2.747 5.754,11.208 -0.054,9.403 5.48,5.727 -2.87,-7.408 2.092,-3.472 4.264,-10.633 2.842,-1.135 9.309,-10.305 0.642,-3.746 7.681,-7.995 10.265,-10.415 z m -38.038,42.139 -3.922,7.189 -4.046,4.223 -1.832,-3.02 0.848,-7.804 -7.162,6.246 -4.756,-10.456 -0.438,4.059 3.882,8.597 0.055,5.098 -6.124,8.802 1.039,7.764 5.932,11.371 8.269,-8.282 0.328,-4.948 4.21,-5.085 0.984,-8.788 4.346,-7.258 z m 148.68,-33.664 2.761,7.681 2.897,4.032 3.841,-0.793 z m 111.038,-58.787 -1.708,0.014 -5.345,0.068 -14.707,17.81 -4.55,-0.369 -13.833,8.706 -7.394,-0.328 -18.93,17.7 3.158,7.586 -9.636,11.208 -9.295,1.394 -0.669,3.239 -4.634,1.449 -7.873,15.923 -5.535,14.871 -1.708,9.13 -9.979,4.934 -1.899,2.119 -5.398,6.041 -18.234,-20.12 -12.56,-6.396 -13.053,-17.987 7.612,-14.133 24.685,-19.011 2.077,-4.688 6.547,-3.65 5.741,-11.85 10.278,-5.481 13.094,-14.283 -19.805,10.319 0.943,-3.157 2.884,-6.834 -6.615,5.222 -6.615,1.612 10.005,-18.848 -16.389,15.65 -7.735,12.26 -5.126,3.963 -0.246,-4.154 -23.823,26.091 -7.708,1.9 -8.612,6.588 -8.227,14.092 -8.953,9.54 -5.084,-0.437 -11.55,8.529 5.782,-11.126 -10.757,7.449 1.927,-6.356 -15.622,8.351 0.902,6.589 -2.502,5.863 -1.749,-0.67 2.46,8.119 -2.802,-2.775 -0.56,5.823 -3.909,1.353 3.13,0.957 -0.342,11.358 -13.08,9.075 -1.053,-7.394 -3.963,-5.112 1.367,11.604 2.774,4.716 -2.925,2.214 -2.979,-3.458 -7.709,11.084 5.891,16.921 -2.351,-1.23 0.314,8.885 -3.198,-2.898 -4.961,-9.786 -15.062,-20.01 -12.001,-8.42 -7.804,-16.798 v -0.013 l -1.135,-2.446 -12.342,-20.229 -18.014,-14.475 -8.146,-10.988 12.861,-11.195 20.598,9.418 c 4.989,-3.786 9.964,-7.572 14.952,-11.359 l 51.569,-37.777 25.587,-13.641 14.57,0.328 50.352,-38.927 16.798,-12.984 4.716,1.9 3.663,-3.348 10.593,-3.827 9.813,-5.631 17.714,15.089 6.232,13.517 15.363,-22.647 4.551,2.118 4.552,-5.973 10.524,8.405 5.344,9.336 3.691,-0.382 3.444,4.004 4.797,-1.654 9.649,-14.447 10.32,-6.438 5.016,-7.025 3.732,7.545 3.13,-2.857 5.713,-0.396 3.253,-4.333 1.955,-0.342 0.34,2.557 2.94,-4.443 2.063,0.766 56.134,20.994 z"
             style="fill:#EEB27B;fill-opacity:1;fill-rule:nonzero;stroke:none"
             id="path22" />
        </g>
        <g
           id="g24"
           transform="translate(639.3262,158.9482)">
          <path
             d="m 0,0 -46.581,-17.413 -29.29,-4.838 -43.573,-10.169 -53.975,-16.374 -52.621,11.522 -18.165,-8.638 -11.604,11.357 -71.866,-28.743 -92.491,44.968 -45.391,-11.878 -17.672,8.16 -15.281,-4.675 -13.723,7.928 -20.515,-5.919 -13.641,7.176 -15.239,-3.253 c 0,0 -24.398,2.433 -23.96,2.774 5.289,2.297 10.633,4.525 16.005,6.643 l 4.606,9.896 28.839,18.971 16.525,26.106 26.584,31.354 13.175,-0.191 8.229,5.084 32.215,35.919 7.613,-0.014 33.5,33.173 2.201,-54.822 11.18,-42.166 22.962,-18.807 -4.879,35.66 -11.194,10.06 -14.584,24.725 21.95,-18.821 -15.185,32.42 12.479,-11.686 -5.822,14.338 -8.475,12.929 5.878,-3.922 3.704,2.145 2.556,-1.065 4.1,2.392 8.939,5.207 3.69,-17.85 5.126,-4.798 8.2,9.349 20.598,9.417 c -0.219,-0.492 -0.287,-20.761 -0.287,-20.761 l 25.737,-31.45 3.266,-18.739 0.041,-0.245 -4.906,-16.962 22.429,-15.774 -0.807,17.632 -5.686,5.207 -9.526,17.769 13.791,-12.246 -13.408,35.099 -1.395,10.073 26.502,-26.653 12.712,-13.176 24.478,-17.74 -7.202,18.834 12.697,0.93 6.821,-1.791 30.807,-26.885 -8.064,14.105 29.03,-18.602 16.798,-12.985 4.716,1.901 3.663,-3.349 10.593,-3.827 9.813,-5.631 17.714,15.089 6.233,13.518 15.362,-22.648 4.552,2.118 4.551,-5.972 10.524,8.405 5.345,9.336 3.69,-0.383 3.444,4.005 4.797,-1.654 9.65,-14.448 10.319,-6.437 5.017,-7.025 3.731,7.544 3.13,-2.856 5.713,-0.396 3.253,-4.333 1.955,-0.342 0.341,2.556 z"
             style="fill:#2E865F;fill-opacity:1;fill-rule:nonzero;stroke:none"
             id="path26" />
        </g>
        <g
           id="g28"
           transform="translate(425.6553,317.5098)">
          <path
             d="m 0,0 -20.994,20.064 -4.524,10.552 -8.775,8.146 -5.248,10.292 8.815,-6.26 -3.034,7.75 10.894,-8.16 8.555,-11.317 14.338,-12.342 z m 92.437,-81.338 -2.885,6.834 -0.943,3.157 19.805,-10.319 -13.094,14.283 -10.278,5.481 -5.741,11.85 -6.547,3.65 -2.077,4.688 -24.685,19.011 -7.612,14.133 -9.95,18.507 -7.203,8.282 -7.559,15.924 -18.001,13.052 -9.991,13.422 -8.72,13.764 -21.35,14.597 -0.382,-6.027 7.517,-4.511 0.656,-9.021 0.875,-3.717 2.57,-4.005 -3.991,0.314 -0.971,3.636 -11.932,12.916 -4.92,1.353 -0.041,0.014 -2.105,0.588 -4.88,2.392 -0.314,-8.885 2.351,1.23 -5.891,-16.921 7.709,-11.084 2.979,3.458 2.925,-2.214 -2.774,-4.716 -1.367,-11.604 3.963,5.112 1.053,7.394 13.08,-9.075 0.342,-11.358 -3.13,-0.957 3.909,-1.353 0.56,-5.823 2.802,2.775 -2.46,-8.119 1.749,0.67 2.502,-5.863 -0.902,-6.589 15.622,-8.351 -1.927,6.356 10.757,-7.449 -5.782,11.126 11.55,-8.529 5.084,0.437 8.953,-9.54 8.227,-14.092 8.612,-6.588 7.708,-1.9 23.823,-26.091 0.246,4.154 5.126,-3.963 7.735,-12.26 16.389,-15.65 -10.005,18.848 6.615,-1.612 z"
             style="fill:#ffffff;fill-opacity:1;fill-rule:nonzero;stroke:none"
             id="path30" />
        </g>
        <g
           id="g32"
           transform="translate(626.1094,231.9619)">
          <path
             d="m 0,0 -5.345,0.068 -14.707,17.81 -4.551,-0.369 -13.832,8.706 -7.394,-0.328 -18.93,17.7 3.157,7.586 -9.635,11.208 -9.295,1.394 -0.669,3.239 -4.634,1.449 -7.873,15.923 -5.535,14.871 -1.708,9.13 -9.979,4.934 -1.899,2.118 6.984,4.688 23.96,-19.189 21.349,-36.07 7.435,-0.615 15.5,-24.028 11.44,-9.335 7.258,-6.629 z"
             style="fill:#ffffff;fill-opacity:1;fill-rule:nonzero;stroke:none"
             id="path34" />
        </g>
        <g
           id="g36"
           transform="translate(392.4971,379.2065)">
          <path
             d="m 0,0 -3.991,0.314 -0.971,3.636 -11.932,12.916 -4.92,1.353 10.579,9.062 -0.383,-6.027 7.517,-4.511 0.657,-9.02 0.875,-3.718 z"
             style="fill:#EEB27B;fill-opacity:1;fill-rule:nonzero;stroke:none"
             id="path38" />
        </g>
        <g
           id="g40"
           transform="translate(369.7124,332.1069)">
          <path
             d="m 0,0 -1.613,-7.708 -3.922,7.189 -4.046,4.223 -1.832,-3.02 0.848,-7.805 -7.162,6.246 -4.756,-10.456 -0.438,4.06 3.882,8.597 0.055,5.098 -6.124,8.802 1.039,7.764 5.932,11.371 8.269,-8.282 0.328,-4.948 4.21,-5.085 0.984,-8.788 z"
             style="fill:#ecf0f8;fill-opacity:1;fill-rule:nonzero;stroke:none"
             id="path42" />
        </g>
        <g
           id="g44"
           transform="translate(418.5752,274.5786)">
          <path
             d="m 0,0 -12.438,7.682 -10.483,5.522 -5.085,3.498 -3.963,-0.82 -6.574,5.782 -4.442,1.654 -0.411,2.706 -2.009,2.747 5.755,11.208 -0.055,9.403 5.48,5.727 -2.87,-7.408 2.092,-3.472 4.264,-10.633 2.843,-1.135 9.308,-10.305 0.642,-3.745 7.681,-7.996 z"
             style="fill:#ecf0f8;fill-opacity:1;fill-rule:nonzero;stroke:none"
             id="path46" />
        </g>
        <g
           id="g48"
           transform="translate(425.6826,336.2349)">
          <path
             d="m 0,0 -0.027,-18.725 -20.994,20.064 -4.524,10.552 -8.775,8.146 -5.248,10.292 8.815,-6.26 -3.034,7.75 10.893,-8.16 8.556,-11.317 z"
             style="fill:#EEB27B;fill-opacity:1;fill-rule:nonzero;stroke:none"
             id="path50" />
        </g>
        <g
           id="g52"
           transform="translate(471.4834,191.2041)">
          <path
             d="m 0,0 -50.353,38.927 -14.569,-0.328 -25.587,13.64 -51.569,37.778 c -4.988,3.786 -9.964,7.572 -14.952,11.358 -0.219,-0.492 -0.287,-20.761 -0.287,-20.761 l 25.736,-31.45 3.267,-18.739 0.041,-0.245 -4.907,-16.962 22.43,-15.774 -0.807,17.632 -5.686,5.207 -9.527,17.769 13.791,-12.246 -13.408,35.099 -1.394,10.073 26.502,-26.653 12.712,-13.176 24.478,-17.74 -7.202,18.834 12.697,0.93 6.821,-1.791 30.807,-26.885 -8.064,14.106 z"
             style="fill:#ffffff;fill-opacity:1;fill-rule:nonzero;stroke:none"
             id="path54" />
        </g>
        <g
           id="g56"
           transform="translate(567.8291,214.3447)">
          <path
             d="m 0,0 -10.333,9.144 -2.993,1.749 -3.458,6.151 -5.523,1.038 1.86,-5.631 -3.663,1.489 -4.962,-2.583 3.868,4.757 -0.765,4.238 10.373,3.976 z"
             style="fill:#ffffff;fill-opacity:1;fill-rule:nonzero;stroke:none"
             id="path58" />
        </g>
        <g
           id="g60"
           transform="translate(603.8437,192.4346)">
          <path
             d="m 0,0 -12.273,6.656 -7.053,4.538 6.793,-2.474 -9.554,9.814 13.217,-7.668 z"
             style="fill:#ffffff;fill-opacity:1;fill-rule:nonzero;stroke:none"
             id="path62" />
        </g>
        <g
           id="g64"
           transform="translate(559.2588,284.3242)">
          <path
             d="m 0,0 -4.127,-8.898 v 4.62 z"
             style="fill:#ffffff;fill-opacity:1;fill-rule:nonzero;stroke:none"
             id="path66" />
        </g>
        <g
           id="g68"
           transform="translate(526.2783,301.6548)">
          <path
             d="m 0,0 -9.499,-10.92 2.761,7.681 2.897,4.032 z"
             style="fill:#ffffff;fill-opacity:1;fill-rule:nonzero;stroke:none"
             id="path70" />
        </g>
        <g
           id="g72"
           transform="translate(272.4927,227.7393)">
          <path
             d="m 0,0 -11.194,10.06 -14.584,24.725 21.951,-18.821 -15.185,32.42 12.479,-11.686 -5.823,14.338 -8.474,12.929 5.877,-3.922 3.704,2.145 2.556,-1.065 4.101,2.392 -26.871,16.62 2.2,-54.823 11.18,-42.165 22.962,-18.807 z"
             style="fill:#ffffff;fill-opacity:1;fill-rule:nonzero;stroke:none"
             id="path74" />
        </g>
        <g
           id="g76"
           transform="translate(320.6313,342.4946)">
          <path
             d="m 0,0 -1.135,-2.446 -12.342,-20.229 -18.014,-14.474 -8.146,-10.989 12.861,-11.195 -8.201,-9.348 -5.125,4.797 -3.69,17.85 12.998,18.958 z"
             style="fill:#ffffff;fill-opacity:1;fill-rule:nonzero;stroke:none"
             id="path78" />
        </g>
      </g>
    </g>
  </g>
</svg>
